<svg version="1.1" xmlns="http://www.w3.org/2000/svg" viewBox="0 0 682.1259765625 169.55102040816325" width="2046.3779296875" height="508.65306122448976">
  <!-- svg-source:excalidraw -->
  
  <defs>
    <style>
      @font-face {
        font-family: "Virgil";
        src: url("https://excalidraw.com/Virgil.woff2");
      }
      @font-face {
        font-family: "Cascadia";
        src: url("https://excalidraw.com/Cascadia.woff2");
      }
    </style>
  </defs>
  <rect x="0" y="0" width="682.1259765625" height="169.55102040816325" fill="#ffffff"/><g stroke-linecap="round" transform="translate(541.7218575718781 28.949159952415016) rotate(0 63.941917866069446 38.268516949888834)"><path d="M1.4 -0.29 C30.35 0.5, 58.91 -0.95, 127.11 -1.5 M-0.87 0.7 C45.19 1.59, 91.28 0.54, 128.88 -0.95 M126.47 -0.91 C126.83 17.87, 129.25 37.34, 128 78.05 M127.82 -0.51 C128.43 15.49, 127.12 31.99, 127.42 76.48 M129.59 75.47 C80.88 76.47, 32.62 77.57, 1.19 74.77 M127.18 76.91 C91.16 77.11, 56 77.82, -0.41 75.98 M-1.4 76.88 C1.21 58.27, 2.35 38.48, -0.26 0.42 M-0.82 75.88 C0.42 53.06, 0.75 28.5, 0.09 -0.47" stroke="#000000" stroke-width="1" fill="none"/></g><g stroke-linecap="round"><g transform="translate(540.6462598209829 39.66569434465919) rotate(0 64.53123188977418 -0.42514328625384223)"><path d="M0.84 -0.17 C22.27 -0.16, 107.95 0.67, 129.24 0.66 M-0.18 -1.31 C21.08 -1.69, 107.2 -1.5, 128.5 -1.11" stroke="#000000" stroke-width="1" fill="none"/></g></g><g stroke-linecap="round" transform="translate(546.209893040833 33.220729752423836) rotate(0 2.5009765625 2.5009765625)"><path d="M4.11 0.59 C4.52 0.93, 4.87 1.54, 4.96 2.07 C5.06 2.59, 4.93 3.29, 4.67 3.75 C4.4 4.22, 3.86 4.67, 3.36 4.85 C2.85 5.03, 2.15 5.03, 1.65 4.85 C1.14 4.67, 0.6 4.22, 0.34 3.75 C0.07 3.29, -0.06 2.59, 0.04 2.07 C0.13 1.54, 0.48 0.93, 0.89 0.59 C1.3 0.24, 1.97 0, 2.5 0 C3.04 0, 3.7 0.24, 4.11 0.59" stroke="none" stroke-width="0" fill="#fa5252"/><path d="M4.11 0.59 C4.52 0.93, 4.87 1.54, 4.96 2.07 C5.06 2.59, 4.93 3.29, 4.67 3.75 C4.4 4.22, 3.86 4.67, 3.36 4.85 C2.85 5.03, 2.15 5.03, 1.65 4.85 C1.14 4.67, 0.6 4.22, 0.34 3.75 C0.07 3.29, -0.06 2.59, 0.04 2.07 C0.13 1.54, 0.48 0.93, 0.89 0.59 C1.3 0.24, 1.97 0, 2.5 0 C3.04 0, 3.7 0.24, 4.11 0.59" stroke="#000000" stroke-width="1" fill="none"/></g><g stroke-linecap="round" transform="translate(556.472588353333 33.220729752423836) rotate(0 2.5009765625 2.5009765625)"><path d="M4.11 0.59 C4.52 0.93, 4.87 1.54, 4.96 2.07 C5.06 2.59, 4.93 3.29, 4.67 3.75 C4.4 4.22, 3.86 4.67, 3.36 4.85 C2.85 5.03, 2.15 5.03, 1.65 4.85 C1.14 4.67, 0.6 4.22, 0.34 3.75 C0.07 3.29, -0.06 2.59, 0.04 2.07 C0.13 1.54, 0.48 0.93, 0.89 0.59 C1.3 0.24, 1.97 0, 2.5 0 C3.04 0, 3.7 0.24, 4.11 0.59" stroke="none" stroke-width="0" fill="#fab005"/><path d="M4.11 0.59 C4.52 0.93, 4.87 1.54, 4.96 2.07 C5.06 2.59, 4.93 3.29, 4.67 3.75 C4.4 4.22, 3.86 4.67, 3.36 4.85 C2.85 5.03, 2.15 5.03, 1.65 4.85 C1.14 4.67, 0.6 4.22, 0.34 3.75 C0.07 3.29, -0.06 2.59, 0.04 2.07 C0.13 1.54, 0.48 0.93, 0.89 0.59 C1.3 0.24, 1.97 0, 2.5 0 C3.04 0, 3.7 0.24, 4.11 0.59" stroke="#000000" stroke-width="1" fill="none"/></g><g stroke-linecap="round" transform="translate(567.1860048196793 33.671450906270024) rotate(0 2.5009765625 2.5009765625)"><path d="M4.11 0.59 C4.52 0.93, 4.87 1.54, 4.96 2.07 C5.06 2.59, 4.93 3.29, 4.67 3.75 C4.4 4.22, 3.86 4.67, 3.36 4.85 C2.85 5.03, 2.15 5.03, 1.65 4.85 C1.14 4.67, 0.6 4.22, 0.34 3.75 C0.07 3.29, -0.06 2.59, 0.04 2.07 C0.13 1.54, 0.48 0.93, 0.89 0.59 C1.3 0.24, 1.97 0, 2.5 0 C3.04 0, 3.7 0.24, 4.11 0.59" stroke="none" stroke-width="0" fill="#40c057"/><path d="M4.11 0.59 C4.52 0.93, 4.87 1.54, 4.96 2.07 C5.06 2.59, 4.93 3.29, 4.67 3.75 C4.4 4.22, 3.86 4.67, 3.36 4.85 C2.85 5.03, 2.15 5.03, 1.65 4.85 C1.14 4.67, 0.6 4.22, 0.34 3.75 C0.07 3.29, -0.06 2.59, 0.04 2.07 C0.13 1.54, 0.48 0.93, 0.89 0.59 C1.3 0.24, 1.97 0, 2.5 0 C3.04 0, 3.7 0.24, 4.11 0.59" stroke="#000000" stroke-width="1" fill="none"/></g><g stroke-opacity="0.9" fill-opacity="0.9" stroke-linecap="round" transform="translate(583.2130658093065 49.723819784285865) rotate(0 21.360101269687846 21.360101269687874)"><path d="M15.01 0.11 C19.21 -1.15, 25.87 0.03, 30.27 2.16 C34.67 4.29, 39.29 8.86, 41.4 12.91 C43.51 16.96, 44.16 22.13, 42.94 26.46 C41.72 30.78, 38.05 36.06, 34.08 38.85 C30.1 41.63, 23.82 43.64, 19.08 43.17 C14.34 42.7, 8.84 39.17, 5.66 36.03 C2.47 32.89, 0.27 28.71, -0.03 24.35 C-0.32 20, 0.94 14, 3.88 9.92 C6.82 5.83, 14.9 1.44, 17.64 -0.13 C20.38 -1.69, 20.2 0.19, 20.3 0.51 M29.93 2.79 C34.16 4.31, 40.55 7.22, 42.51 11.6 C44.47 15.98, 43.48 24.22, 41.7 29.07 C39.93 33.92, 35.59 38.44, 31.88 40.71 C28.18 42.98, 23.98 43.55, 19.47 42.69 C14.95 41.82, 8.07 38.97, 4.79 35.54 C1.52 32.11, -0.06 26.48, -0.18 22.1 C-0.29 17.72, 1.52 13.08, 4.1 9.24 C6.68 5.4, 10.98 0.43, 15.31 -0.92 C19.63 -2.27, 27.57 0.58, 30.04 1.15 C32.51 1.72, 30.02 1.77, 30.13 2.49" stroke="none" stroke-width="0" fill="#04aaf7"/><path d="M18.08 -0.19 C22.27 -1.28, 27.04 0.91, 30.81 3.36 C34.58 5.81, 38.94 10.38, 40.68 14.5 C42.43 18.61, 42.47 24.02, 41.26 28.06 C40.04 32.09, 37.36 36.38, 33.39 38.7 C29.42 41.02, 22.11 42.64, 17.43 41.97 C12.75 41.31, 8.28 38.12, 5.3 34.7 C2.32 31.28, -0.33 25.75, -0.45 21.43 C-0.57 17.12, 1.17 12.37, 4.6 8.82 C8.03 5.27, 17.12 1.67, 20.14 0.13 C23.16 -1.41, 22.87 -0.88, 22.74 -0.44 M19.55 -0.64 C23.87 -1.38, 29.98 0.77, 33.75 3.9 C37.53 7.03, 40.99 13.61, 42.19 18.12 C43.39 22.63, 42.9 27.23, 40.96 30.95 C39.02 34.66, 34.84 38.58, 30.54 40.41 C26.25 42.24, 19.73 43.05, 15.19 41.93 C10.65 40.81, 5.66 37.87, 3.31 33.71 C0.97 29.55, 0.52 21.55, 1.11 16.96 C1.71 12.36, 3.38 9.12, 6.89 6.12 C10.41 3.12, 19.8 0.02, 22.19 -1.05 C24.59 -2.13, 21.69 -0.99, 21.29 -0.33" stroke="#000000" stroke-width="1" fill="none"/></g><g stroke-linecap="round"><g transform="translate(610.291229871282 65.94817184874353) rotate(0 -3.4669568227483865 6.479860744560767)" fill-rule="evenodd"><path d="M0 0 L-1.83 -0.41 L-7.57 -6.27 L-9.75 -6.1 L-11.36 -4.35 L-12.61 2.37 L-11.27 6.74 L-17.42 8.89 L-18 11.42 L-17.2 13.64 L-15.01 14.04 L-12.38 13.35 L-8.7 9.48 L-3.62 17.87 L-1.49 19.38 L-0.42 18.17 L-3.78 4.8 L-1.52 3.64 L1.39 4.35 L3.16 5.87 L6.21 6.29 L9.24 5.87 L10.81 3.22 L10.8 0.63 L4.22 1.11 L5.49 -5.76 L4.23 -6.26 L2.47 -5.35 L-0.24 -0.92 L0 0" stroke="none" stroke-width="0" fill="#40c057" fill-rule="evenodd"/><path d="M0 0 C-0.31 -0.07, -0.57 0.63, -1.83 -0.41 C-3.09 -1.46, -5.98 -5.62, -7.57 -6.27 C-9.16 -6.93, -10.52 -5.79, -11.36 -4.35 C-12.2 -2.91, -12.63 0.53, -12.61 2.37 C-12.6 4.22, -10.47 5.65, -11.27 6.74 C-12.07 7.83, -16.44 7.74, -17.42 8.89 C-18.41 10.04, -18.04 12.9, -17.2 13.64 C-16.36 14.39, -13.8 14.04, -12.38 13.35 C-10.96 12.66, -10.16 8.72, -8.7 9.48 C-7.24 10.23, -5 16.42, -3.62 17.87 C-2.24 19.32, -0.39 20.35, -0.42 18.17 C-0.44 15.99, -4.08 7.1, -3.78 4.8 C-3.48 2.5, 0.23 4.17, 1.39 4.35 C2.54 4.53, 1.85 5.61, 3.16 5.87 C4.47 6.12, 7.96 6.74, 9.24 5.87 C10.51 5, 11.64 1.43, 10.8 0.63 C9.97 -0.16, 5.11 2.18, 4.22 1.11 C3.34 0.04, 5.78 -4.68, 5.49 -5.76 C5.19 -6.84, 3.43 -6.15, 2.47 -5.35 C1.52 -4.54, 0.17 -1.81, -0.24 -0.92 C-0.65 -0.03, -0.04 -0.15, 0 0 M0 0 C-0.31 -0.07, -0.57 0.63, -1.83 -0.41 C-3.09 -1.46, -5.98 -5.62, -7.57 -6.27 C-9.16 -6.93, -10.52 -5.79, -11.36 -4.35 C-12.2 -2.91, -12.63 0.53, -12.61 2.37 C-12.6 4.22, -10.47 5.65, -11.27 6.74 C-12.07 7.83, -16.44 7.74, -17.42 8.89 C-18.41 10.04, -18.04 12.9, -17.2 13.64 C-16.36 14.39, -13.8 14.04, -12.38 13.35 C-10.96 12.66, -10.16 8.72, -8.7 9.48 C-7.24 10.23, -5 16.42, -3.62 17.87 C-2.24 19.32, -0.39 20.35, -0.42 18.17 C-0.44 15.99, -4.08 7.1, -3.78 4.8 C-3.48 2.5, 0.23 4.17, 1.39 4.35 C2.54 4.53, 1.85 5.61, 3.16 5.87 C4.47 6.12, 7.96 6.74, 9.24 5.87 C10.51 5, 11.64 1.43, 10.8 0.63 C9.97 -0.16, 5.11 2.18, 4.22 1.11 C3.34 0.04, 5.78 -4.68, 5.49 -5.76 C5.19 -6.84, 3.43 -6.15, 2.47 -5.35 C1.52 -4.54, 0.17 -1.81, -0.24 -0.92 C-0.65 -0.03, -0.04 -0.15, 0 0" stroke="#087f5b" stroke-width="1" fill="none"/></g></g><g stroke-linecap="round"><g stroke-opacity="0.9" fill-opacity="0.9" transform="translate(584.272128283334 70.68669334746687) rotate(0 21.163578880024545 0.17326523659285442)"><path d="M-0.47 -0.9 C6.71 -0.7, 35.82 1.02, 42.79 1 M1.49 1.24 C8.6 1.15, 35.14 -0.35, 42.21 -0.6" stroke="#000000" stroke-width="1" fill="none"/></g></g><g stroke-linecap="round"><g stroke-opacity="0.9" fill-opacity="0.9" transform="translate(589.3674573131084 55.252164420500776) rotate(0 14.659303301924297 2.6275724513134264)"><path d="M0 0 C0.13 0.38, 0.09 1.58, 0.77 2.28 C1.46 2.97, 2.81 3.68, 4.1 4.19 C5.4 4.7, 6.64 5.13, 8.54 5.34 C10.43 5.55, 12.97 5.55, 15.48 5.45 C17.99 5.34, 21.44 5.28, 23.58 4.71 C25.72 4.14, 27.36 2.86, 28.32 2.03 C29.27 1.2, 29.15 0.12, 29.32 -0.26 M0 0 C0.13 0.38, 0.09 1.58, 0.77 2.28 C1.46 2.97, 2.81 3.68, 4.1 4.19 C5.4 4.7, 6.64 5.13, 8.54 5.34 C10.43 5.55, 12.97 5.55, 15.48 5.45 C17.99 5.34, 21.44 5.28, 23.58 4.71 C25.72 4.14, 27.36 2.86, 28.32 2.03 C29.27 1.2, 29.15 0.12, 29.32 -0.26" stroke="#000000" stroke-width="1" fill="none"/></g></g><g stroke-opacity="0.9" fill-opacity="0.9" stroke-linecap="round" transform="translate(597.4413732370278 48.34129015469318) rotate(0 7.764217176558077 22.41115194065472)"><path d="M4.9 1.8 C6.47 0.05, 8.7 -0.01, 10.49 1.57 C12.29 3.15, 14.98 7.07, 15.68 11.3 C16.38 15.54, 15.23 22.26, 14.7 26.98 C14.16 31.7, 13.77 36.71, 12.47 39.62 C11.17 42.53, 8.59 44.45, 6.9 44.45 C5.21 44.46, 3.38 42.87, 2.33 39.66 C1.28 36.45, 0.64 30.24, 0.59 25.18 C0.54 20.12, 0.91 13.41, 2.02 9.31 C3.12 5.22, 5.95 2.03, 7.24 0.6 C8.52 -0.84, 9.51 0.58, 9.73 0.73 M6.01 1.62 C7.8 0.39, 10.44 0.11, 12.14 2.01 C13.85 3.92, 15.63 8.48, 16.22 13.06 C16.81 17.63, 16.39 24.56, 15.7 29.46 C15 34.36, 13.39 40.14, 12.05 42.44 C10.71 44.75, 9.35 44, 7.63 43.3 C5.92 42.6, 2.81 41.74, 1.78 38.24 C0.76 34.74, 1.42 27.35, 1.48 22.3 C1.55 17.26, 1.57 11.48, 2.16 7.99 C2.76 4.49, 4.4 2.61, 5.06 1.33 C5.73 0.06, 6.1 0.21, 6.16 0.34" stroke="#000000" stroke-width="1" fill="none"/></g><g stroke-linecap="round"><g stroke-opacity="0.9" fill-opacity="0.9" transform="translate(590.8834088227343 86.98925647894168) rotate(0 14.659303301924297 -2.712622320327597)"><path d="M0 0 C0.68 -0.72, 2.68 -3.4, 4.1 -4.32 C5.53 -5.24, 6.64 -5.3, 8.54 -5.52 C10.43 -5.73, 12.97 -5.73, 15.48 -5.63 C17.99 -5.52, 21.44 -5.45, 23.58 -4.86 C25.72 -4.28, 27.36 -2.95, 28.32 -2.1 C29.27 -1.24, 29.15 -0.12, 29.32 0.27 M0 0 C0.68 -0.72, 2.68 -3.4, 4.1 -4.32 C5.53 -5.24, 6.64 -5.3, 8.54 -5.52 C10.43 -5.73, 12.97 -5.73, 15.48 -5.63 C17.99 -5.52, 21.44 -5.45, 23.58 -4.86 C25.72 -4.28, 27.36 -2.95, 28.32 -2.1 C29.27 -1.24, 29.15 -0.12, 29.32 0.27" stroke="#000000" stroke-width="1" fill="none"/></g></g><g transform="translate(554.1259765625 133.55102040816325) rotate(0 59 13)"><text x="0" y="18" font-family="Virgil, Segoe UI Emoji" font-size="20px" fill="#000000" text-anchor="start" style="white-space: pre;" direction="ltr">Web browser</text></g><g stroke-linecap="round"><g transform="translate(136.1259765625001 58.38742806542385) rotate(0 194.99999999999994 0.08179617136970307)"><path d="M0 0 C65 0.03, 325 0.14, 390 0.16 M0 0 C65 0.03, 325 0.14, 390 0.16" stroke="#000000" stroke-width="1" fill="none"/></g><g transform="translate(136.1259765625001 58.38742806542385) rotate(0 194.99999999999994 0.08179617136970307)"><path d="M361.8 10.41 C369.71 7.54, 377.61 4.67, 390 0.16 M361.8 10.41 C372.51 6.52, 383.22 2.63, 390 0.16" stroke="#000000" stroke-width="1" fill="none"/></g><g transform="translate(136.1259765625001 58.38742806542385) rotate(0 194.99999999999994 0.08179617136970307)"><path d="M361.81 -10.11 C369.72 -7.23, 377.62 -4.35, 390 0.16 M361.81 -10.11 C372.52 -6.21, 383.23 -2.3, 390 0.16" stroke="#000000" stroke-width="1" fill="none"/></g></g><g stroke-linecap="round"><g transform="translate(521.1259765625 86.55102040816325) rotate(0 -188.99999999999997 0.6098214343695076)"><path d="M0 0 C-63 0.2, -315 1.02, -378 1.22 M0 0 C-63 0.2, -315 1.02, -378 1.22" stroke="#000000" stroke-width="1" fill="none"/></g><g transform="translate(521.1259765625 86.55102040816325) rotate(0 -188.99999999999997 0.6098214343695076)"><path d="M-349.84 -9.13 C-355.81 -6.94, -361.79 -4.74, -378 1.22 M-349.84 -9.13 C-356 -6.87, -362.16 -4.6, -378 1.22" stroke="#000000" stroke-width="1" fill="none"/></g><g transform="translate(521.1259765625 86.55102040816325) rotate(0 -188.99999999999997 0.6098214343695076)"><path d="M-349.78 11.39 C-355.76 9.23, -361.75 7.08, -378 1.22 M-349.78 11.39 C-355.95 9.17, -362.12 6.94, -378 1.22" stroke="#000000" stroke-width="1" fill="none"/></g></g><g transform="translate(184 24.36545339785397) rotate(0 116.5 12.5)"><text x="0" y="17" font-family="Virgil, Segoe UI Emoji" font-size="18.927835051546392px" fill="#000000" text-anchor="start" style="white-space: pre;" direction="ltr">(via Dev Tools Protocol)</text></g><g transform="translate(10 10) rotate(0 53.5 56.7755102040816)"><text x="0" y="84.55102040816323" font-family="Virgil, Segoe UI Emoji" font-size="78.61224489795921px" fill="#000000" text-anchor="start" style="white-space: pre;" direction="ltr">🤖</text></g></svg>