<?xml version="1.0" encoding="UTF-8"?><svg xmlns="http://www.w3.org/2000/svg" xmlns:xlink="http://www.w3.org/1999/xlink" fill-opacity="1" color-rendering="auto" color-interpolation="auto" text-rendering="auto" stroke="black" stroke-linecap="square" width="657" stroke-miterlimit="10" shape-rendering="auto" stroke-opacity="1" fill="black" stroke-dasharray="none" font-weight="normal" stroke-width="1" height="551" font-family="'Dialog'" font-style="normal" stroke-linejoin="miter" font-size="12px" stroke-dashoffset="0" image-rendering="auto">
  <!--Generated by ySVG 2.5-->
  <defs id="genericDefs"/>
  <g>
    <defs id="defs1">
      <clipPath clipPathUnits="userSpaceOnUse" id="clipPath1">
        <path d="M0 0 L657 0 L657 551 L0 551 L0 0 Z"/>
      </clipPath>
      <clipPath clipPathUnits="userSpaceOnUse" id="clipPath2">
        <path d="M-86 8 L571 8 L571 559 L-86 559 L-86 8 Z"/>
      </clipPath>
    </defs>
    <g fill="white" text-rendering="geometricPrecision" shape-rendering="geometricPrecision" transform="translate(86,-8)" stroke="white">
      <rect x="-86" width="657" height="551" y="8" clip-path="url(#clipPath2)" stroke="none"/>
    </g>
    <g fill="rgb(153,204,255)" text-rendering="geometricPrecision" shape-rendering="geometricPrecision" transform="matrix(1,0,0,1,86,-8)" stroke="rgb(153,204,255)">
      <rect x="-71" y="23" clip-path="url(#clipPath2)" width="627" rx="4" ry="4" height="105" stroke="none"/>
    </g>
    <g font-size="20px" stroke-linecap="butt" transform="matrix(1,0,0,1,86,-8)" text-rendering="geometricPrecision" font-family="sans-serif" shape-rendering="geometricPrecision" stroke-miterlimit="1.45">
      <text x="174.1455" xml:space="preserve" y="49.1074" clip-path="url(#clipPath2)" stroke="none">At compile time</text>
    </g>
    <g fill="rgb(5,94,148)" text-rendering="geometricPrecision" shape-rendering="geometricPrecision" transform="matrix(1,0,0,1,86,-8)" stroke="rgb(5,94,148)">
      <rect x="-50" width="195" height="56" y="55.5" clip-path="url(#clipPath2)" stroke="none"/>
    </g>
    <g stroke-linecap="butt" transform="matrix(1,0,0,1,86,-8)" fill="white" text-rendering="geometricPrecision" font-family="sans-serif" shape-rendering="geometricPrecision" stroke="white" stroke-miterlimit="1.45">
      <text x="13.1465" xml:space="preserve" y="80.8633" clip-path="url(#clipPath2)" stroke="none">code source </text>
      <text x="-11.1875" xml:space="preserve" y="95.5645" clip-path="url(#clipPath2)" stroke="none">(.java, .scala, .groovy)</text>
    </g>
    <g fill="rgb(217,236,255)" text-rendering="geometricPrecision" shape-rendering="geometricPrecision" transform="matrix(1,0,0,1,86,-8)" stroke="rgb(217,236,255)">
      <rect x="-71" y="158" clip-path="url(#clipPath2)" width="627" rx="4" ry="4" height="294" stroke="none"/>
    </g>
    <g font-size="20px" stroke-linecap="butt" transform="matrix(1,0,0,1,86,-8)" text-rendering="geometricPrecision" font-family="sans-serif" shape-rendering="geometricPrecision" stroke-miterlimit="1.45">
      <text x="182.4854" xml:space="preserve" y="184.1074" clip-path="url(#clipPath2)" stroke="none">JVM Runtime</text>
    </g>
    <g fill="rgb(153,51,0)" text-rendering="geometricPrecision" shape-rendering="geometricPrecision" transform="matrix(1,0,0,1,86,-8)" stroke="rgb(153,51,0)">
      <rect x="338.75" width="195" height="56" y="55.5" clip-path="url(#clipPath2)" stroke="none"/>
    </g>
    <g stroke-linecap="butt" transform="matrix(1,0,0,1,86,-8)" fill="white" text-rendering="geometricPrecision" font-family="sans-serif" shape-rendering="geometricPrecision" stroke="white" stroke-miterlimit="1.45">
      <text x="410.2314" xml:space="preserve" y="80.8633" clip-path="url(#clipPath2)" stroke="none">bytecode </text>
      <text x="416.917" xml:space="preserve" y="95.5645" clip-path="url(#clipPath2)" stroke="none">(.class)</text>
    </g>
    <g fill="rgb(1,117,1)" text-rendering="geometricPrecision" shape-rendering="geometricPrecision" transform="matrix(1,0,0,1,86,-8)" stroke="rgb(1,117,1)">
      <rect x="-51.75" width="195" height="56" y="215" clip-path="url(#clipPath2)" stroke="none"/>
    </g>
    <g stroke-linecap="butt" transform="matrix(1,0,0,1,86,-8)" fill="white" text-rendering="geometricPrecision" font-family="sans-serif" shape-rendering="geometricPrecision" stroke="white" stroke-miterlimit="1.45">
      <text x="37.418" xml:space="preserve" y="247.7139" clip-path="url(#clipPath2)" stroke="none">JIT</text>
    </g>
    <g fill="rgb(204,153,255)" text-rendering="geometricPrecision" shape-rendering="geometricPrecision" transform="matrix(1,0,0,1,86,-8)" stroke="rgb(204,153,255)">
      <rect x="-71" y="452" clip-path="url(#clipPath2)" width="627" rx="4" ry="4" height="91.5" stroke="none"/>
    </g>
    <g stroke-linecap="butt" font-size="20px" transform="matrix(1,0,0,1,86,-8)" fill="white" text-rendering="geometricPrecision" font-family="sans-serif" shape-rendering="geometricPrecision" stroke="white" stroke-miterlimit="1.45">
      <text x="199.707" xml:space="preserve" y="478.1074" clip-path="url(#clipPath2)" stroke="none">Plateform</text>
    </g>
    <g fill="rgb(255,188,20)" text-rendering="geometricPrecision" shape-rendering="geometricPrecision" transform="matrix(1,0,0,1,86,-8)" stroke="rgb(255,188,20)">
      <rect x="-51.75" width="195" height="56" y="430" clip-path="url(#clipPath2)" stroke="none"/>
    </g>
    <g stroke-linecap="butt" transform="matrix(1,0,0,1,86,-8)" fill="white" text-rendering="geometricPrecision" font-family="sans-serif" shape-rendering="geometricPrecision" stroke="white" stroke-miterlimit="1.45">
      <text x="12.7324" xml:space="preserve" y="462.7139" clip-path="url(#clipPath2)" stroke="none">Native Code</text>
    </g>
    <g fill="rgb(153,204,0)" text-rendering="geometricPrecision" shape-rendering="geometricPrecision" transform="matrix(1,0,0,1,86,-8)" stroke="rgb(153,204,0)">
      <rect x="387.5" width="134" height="56" y="215" clip-path="url(#clipPath2)" stroke="none"/>
    </g>
    <g stroke-linecap="butt" transform="matrix(1,0,0,1,86,-8)" fill="white" text-rendering="geometricPrecision" font-family="sans-serif" shape-rendering="geometricPrecision" stroke="white" stroke-miterlimit="1.45">
      <text x="422.4844" xml:space="preserve" y="247.7139" clip-path="url(#clipPath2)" stroke="none">class loader</text>
    </g>
    <g fill="rgb(0,204,102)" text-rendering="geometricPrecision" shape-rendering="geometricPrecision" transform="matrix(1,0,0,1,86,-8)" stroke="rgb(0,204,102)">
      <rect x="189.375" width="134" height="56" y="215" clip-path="url(#clipPath2)" stroke="none"/>
    </g>
    <g stroke-linecap="butt" transform="matrix(1,0,0,1,86,-8)" fill="white" text-rendering="geometricPrecision" font-family="sans-serif" shape-rendering="geometricPrecision" stroke="white" stroke-miterlimit="1.45">
      <text x="210.0215" xml:space="preserve" y="247.7139" clip-path="url(#clipPath2)" stroke="none">Byte code verifier</text>
    </g>
    <g fill="rgb(0,204,204)" text-rendering="geometricPrecision" shape-rendering="geometricPrecision" transform="matrix(1,0,0,1,86,-8)" stroke="rgb(0,204,204)">
      <rect x="232" width="242" height="56" y="346" clip-path="url(#clipPath2)" stroke="none"/>
    </g>
    <g stroke-linecap="butt" transform="matrix(1,0,0,1,86,-8)" fill="white" text-rendering="geometricPrecision" font-family="sans-serif" shape-rendering="geometricPrecision" stroke="white" stroke-miterlimit="1.45">
      <text x="242.9492" xml:space="preserve" y="378.7139" clip-path="url(#clipPath2)" stroke="none">Memory managment / Garbage collection</text>
    </g>
    <g text-rendering="geometricPrecision" stroke-miterlimit="1.45" shape-rendering="geometricPrecision" transform="matrix(1,0,0,1,86,-8)" stroke-linecap="butt">
      <path fill="none" d="M322.25 76.625 L325.175 81.5 L145 81.5 L145 85.5 L325.175 85.5 L322.25 90.375 L338.75 83.5 L322.25 76.625 Z" clip-path="url(#clipPath2)"/>
    </g>
    <g text-rendering="geometricPrecision" stroke-miterlimit="1.45" shape-rendering="geometricPrecision" transform="matrix(1,0,0,1,86,-8)" stroke-linecap="butt">
      <path fill="none" d="M43.75 271 L43.75 416.425 L43.75 416.425 L38.875 413.5 L45.75 430 L52.625 413.5 L47.75 416.425 L47.75 416.425 L47.75 271 Z" clip-path="url(#clipPath2)"/>
    </g>
    <g text-rendering="geometricPrecision" stroke-miterlimit="1.45" shape-rendering="geometricPrecision" transform="matrix(1,0,0,1,86,-8)" stroke-linecap="butt">
      <path fill="none" d="M453 111.4893 L453 202.85 L448.25 200 L454.5 215 L460.75 200 L456 202.85 L456 111.4893 Z" clip-path="url(#clipPath2)"/>
    </g>
    <g text-rendering="geometricPrecision" stroke-miterlimit="1.45" shape-rendering="geometricPrecision" transform="matrix(1,0,0,1,86,-8)" stroke-linecap="butt">
      <path fill="none" d="M338.375 236.75 L323.375 243 L338.375 249.25 L335.525 244.5 L387.5 244.5 L387.5 241.5 L335.525 241.5 L338.375 236.75 Z" clip-path="url(#clipPath2)"/>
    </g>
    <g text-rendering="geometricPrecision" stroke-miterlimit="1.45" shape-rendering="geometricPrecision" transform="matrix(1,0,0,1,86,-8)" stroke-linecap="butt">
      <path fill="none" d="M158.25 236.75 L143.25 243 L158.25 249.25 L155.4 244.5 L189.375 244.5 L189.375 241.5 L155.4 241.5 L158.25 236.75 Z" clip-path="url(#clipPath2)"/>
    </g>
  </g>
</svg>
