<svg version="1.1" xmlns="http://www.w3.org/2000/svg" viewBox="0 0 682.1259765625 192.55102040816325" width="2046.3779296875" height="577.6530612244898">
  <!-- svg-source:excalidraw -->
  
  <defs>
    <style>
      @font-face {
        font-family: "Virgil";
        src: url("https://excalidraw.com/Virgil.woff2");
      }
      @font-face {
        font-family: "Cascadia";
        src: url("https://excalidraw.com/Cascadia.woff2");
      }
    </style>
  </defs>
  <rect x="0" y="0" width="682.1259765625" height="192.55102040816325" fill="#ffffff"></rect><g stroke-linecap="round" transform="translate(541.7218575718781 28.949159952415016) rotate(0 63.941917866069446 38.268516949888834)"><path d="M1.4 -0.29 C30.35 0.5, 58.91 -0.95, 127.11 -1.5 M-0.87 0.7 C45.19 1.59, 91.28 0.54, 128.88 -0.95 M126.47 -0.91 C126.83 17.87, 129.25 37.34, 128 78.05 M127.82 -0.51 C128.43 15.49, 127.12 31.99, 127.42 76.48 M129.59 75.47 C80.88 76.47, 32.62 77.57, 1.19 74.77 M127.18 76.91 C91.16 77.11, 56 77.82, -0.41 75.98 M-1.4 76.88 C1.21 58.27, 2.35 38.48, -0.26 0.42 M-0.82 75.88 C0.42 53.06, 0.75 28.5, 0.09 -0.47" stroke="#000000" stroke-width="1" fill="none"></path></g><g stroke-linecap="round"><g transform="translate(540.6462598209829 39.66569434465919) rotate(0 64.53123188977418 -0.42514328625384223)"><path d="M0.84 -0.17 C22.27 -0.16, 107.95 0.67, 129.24 0.66 M-0.18 -1.31 C21.08 -1.69, 107.2 -1.5, 128.5 -1.11" stroke="#000000" stroke-width="1" fill="none"></path></g></g><g stroke-linecap="round" transform="translate(546.209893040833 33.220729752423836) rotate(0 2.5009765625 2.5009765625)"><path d="M4.11 0.59 C4.52 0.93, 4.87 1.54, 4.96 2.07 C5.06 2.59, 4.93 3.29, 4.67 3.75 C4.4 4.22, 3.86 4.67, 3.36 4.85 C2.85 5.03, 2.15 5.03, 1.65 4.85 C1.14 4.67, 0.6 4.22, 0.34 3.75 C0.07 3.29, -0.06 2.59, 0.04 2.07 C0.13 1.54, 0.48 0.93, 0.89 0.59 C1.3 0.24, 1.97 0, 2.5 0 C3.04 0, 3.7 0.24, 4.11 0.59" stroke="none" stroke-width="0" fill="#fa5252"></path><path d="M4.11 0.59 C4.52 0.93, 4.87 1.54, 4.96 2.07 C5.06 2.59, 4.93 3.29, 4.67 3.75 C4.4 4.22, 3.86 4.67, 3.36 4.85 C2.85 5.03, 2.15 5.03, 1.65 4.85 C1.14 4.67, 0.6 4.22, 0.34 3.75 C0.07 3.29, -0.06 2.59, 0.04 2.07 C0.13 1.54, 0.48 0.93, 0.89 0.59 C1.3 0.24, 1.97 0, 2.5 0 C3.04 0, 3.7 0.24, 4.11 0.59" stroke="#000000" stroke-width="1" fill="none"></path></g><g stroke-linecap="round" transform="translate(556.472588353333 33.220729752423836) rotate(0 2.5009765625 2.5009765625)"><path d="M4.11 0.59 C4.52 0.93, 4.87 1.54, 4.96 2.07 C5.06 2.59, 4.93 3.29, 4.67 3.75 C4.4 4.22, 3.86 4.67, 3.36 4.85 C2.85 5.03, 2.15 5.03, 1.65 4.85 C1.14 4.67, 0.6 4.22, 0.34 3.75 C0.07 3.29, -0.06 2.59, 0.04 2.07 C0.13 1.54, 0.48 0.93, 0.89 0.59 C1.3 0.24, 1.97 0, 2.5 0 C3.04 0, 3.7 0.24, 4.11 0.59" stroke="none" stroke-width="0" fill="#fab005"></path><path d="M4.11 0.59 C4.52 0.93, 4.87 1.54, 4.96 2.07 C5.06 2.59, 4.93 3.29, 4.67 3.75 C4.4 4.22, 3.86 4.67, 3.36 4.85 C2.85 5.03, 2.15 5.03, 1.65 4.85 C1.14 4.67, 0.6 4.22, 0.34 3.75 C0.07 3.29, -0.06 2.59, 0.04 2.07 C0.13 1.54, 0.48 0.93, 0.89 0.59 C1.3 0.24, 1.97 0, 2.5 0 C3.04 0, 3.7 0.24, 4.11 0.59" stroke="#000000" stroke-width="1" fill="none"></path></g><g stroke-linecap="round" transform="translate(567.1860048196793 33.671450906270024) rotate(0 2.5009765625 2.5009765625)"><path d="M4.11 0.59 C4.52 0.93, 4.87 1.54, 4.96 2.07 C5.06 2.59, 4.93 3.29, 4.67 3.75 C4.4 4.22, 3.86 4.67, 3.36 4.85 C2.85 5.03, 2.15 5.03, 1.65 4.85 C1.14 4.67, 0.6 4.22, 0.34 3.75 C0.07 3.29, -0.06 2.59, 0.04 2.07 C0.13 1.54, 0.48 0.93, 0.89 0.59 C1.3 0.24, 1.97 0, 2.5 0 C3.04 0, 3.7 0.24, 4.11 0.59" stroke="none" stroke-width="0" fill="#40c057"></path><path d="M4.11 0.59 C4.52 0.93, 4.87 1.54, 4.96 2.07 C5.06 2.59, 4.93 3.29, 4.67 3.75 C4.4 4.22, 3.86 4.67, 3.36 4.85 C2.85 5.03, 2.15 5.03, 1.65 4.85 C1.14 4.67, 0.6 4.22, 0.34 3.75 C0.07 3.29, -0.06 2.59, 0.04 2.07 C0.13 1.54, 0.48 0.93, 0.89 0.59 C1.3 0.24, 1.97 0, 2.5 0 C3.04 0, 3.7 0.24, 4.11 0.59" stroke="#000000" stroke-width="1" fill="none"></path></g><g stroke-opacity="0.9" fill-opacity="0.9" stroke-linecap="round" transform="translate(583.2130658093065 49.723819784285865) rotate(0 21.360101269687846 21.360101269687874)"><path d="M15.01 0.11 C19.21 -1.15, 25.87 0.03, 30.27 2.16 C34.67 4.29, 39.29 8.86, 41.4 12.91 C43.51 16.96, 44.16 22.13, 42.94 26.46 C41.72 30.78, 38.05 36.06, 34.08 38.85 C30.1 41.63, 23.82 43.64, 19.08 43.17 C14.34 42.7, 8.84 39.17, 5.66 36.03 C2.47 32.89, 0.27 28.71, -0.03 24.35 C-0.32 20, 0.94 14, 3.88 9.92 C6.82 5.83, 14.9 1.44, 17.64 -0.13 C20.38 -1.69, 20.2 0.19, 20.3 0.51 M29.93 2.79 C34.16 4.31, 40.55 7.22, 42.51 11.6 C44.47 15.98, 43.48 24.22, 41.7 29.07 C39.93 33.92, 35.59 38.44, 31.88 40.71 C28.18 42.98, 23.98 43.55, 19.47 42.69 C14.95 41.82, 8.07 38.97, 4.79 35.54 C1.52 32.11, -0.06 26.48, -0.18 22.1 C-0.29 17.72, 1.52 13.08, 4.1 9.24 C6.68 5.4, 10.98 0.43, 15.31 -0.92 C19.63 -2.27, 27.57 0.58, 30.04 1.15 C32.51 1.72, 30.02 1.77, 30.13 2.49" stroke="none" stroke-width="0" fill="#04aaf7"></path><path d="M18.08 -0.19 C22.27 -1.28, 27.04 0.91, 30.81 3.36 C34.58 5.81, 38.94 10.38, 40.68 14.5 C42.43 18.61, 42.47 24.02, 41.26 28.06 C40.04 32.09, 37.36 36.38, 33.39 38.7 C29.42 41.02, 22.11 42.64, 17.43 41.97 C12.75 41.31, 8.28 38.12, 5.3 34.7 C2.32 31.28, -0.33 25.75, -0.45 21.43 C-0.57 17.12, 1.17 12.37, 4.6 8.82 C8.03 5.27, 17.12 1.67, 20.14 0.13 C23.16 -1.41, 22.87 -0.88, 22.74 -0.44 M19.55 -0.64 C23.87 -1.38, 29.98 0.77, 33.75 3.9 C37.53 7.03, 40.99 13.61, 42.19 18.12 C43.39 22.63, 42.9 27.23, 40.96 30.95 C39.02 34.66, 34.84 38.58, 30.54 40.41 C26.25 42.24, 19.73 43.05, 15.19 41.93 C10.65 40.81, 5.66 37.87, 3.31 33.71 C0.97 29.55, 0.52 21.55, 1.11 16.96 C1.71 12.36, 3.38 9.12, 6.89 6.12 C10.41 3.12, 19.8 0.02, 22.19 -1.05 C24.59 -2.13, 21.69 -0.99, 21.29 -0.33" stroke="#000000" stroke-width="1" fill="none"></path></g><g stroke-linecap="round"><g transform="translate(610.291229871282 65.94817184874353) rotate(0 -3.4669568227483865 6.479860744560767)" fill-rule="evenodd"><path d="M0 0 L-1.83 -0.41 L-7.57 -6.27 L-9.75 -6.1 L-11.36 -4.35 L-12.61 2.37 L-11.27 6.74 L-17.42 8.89 L-18 11.42 L-17.2 13.64 L-15.01 14.04 L-12.38 13.35 L-8.7 9.48 L-3.62 17.87 L-1.49 19.38 L-0.42 18.17 L-3.78 4.8 L-1.52 3.64 L1.39 4.35 L3.16 5.87 L6.21 6.29 L9.24 5.87 L10.81 3.22 L10.8 0.63 L4.22 1.11 L5.49 -5.76 L4.23 -6.26 L2.47 -5.35 L-0.24 -0.92 L0 0" stroke="none" stroke-width="0" fill="#40c057" fill-rule="evenodd"></path><path d="M0 0 C-0.31 -0.07, -0.57 0.63, -1.83 -0.41 C-3.09 -1.46, -5.98 -5.62, -7.57 -6.27 C-9.16 -6.93, -10.52 -5.79, -11.36 -4.35 C-12.2 -2.91, -12.63 0.53, -12.61 2.37 C-12.6 4.22, -10.47 5.65, -11.27 6.74 C-12.07 7.83, -16.44 7.74, -17.42 8.89 C-18.41 10.04, -18.04 12.9, -17.2 13.64 C-16.36 14.39, -13.8 14.04, -12.38 13.35 C-10.96 12.66, -10.16 8.72, -8.7 9.48 C-7.24 10.23, -5 16.42, -3.62 17.87 C-2.24 19.32, -0.39 20.35, -0.42 18.17 C-0.44 15.99, -4.08 7.1, -3.78 4.8 C-3.48 2.5, 0.23 4.17, 1.39 4.35 C2.54 4.53, 1.85 5.61, 3.16 5.87 C4.47 6.12, 7.96 6.74, 9.24 5.87 C10.51 5, 11.64 1.43, 10.8 0.63 C9.97 -0.16, 5.11 2.18, 4.22 1.11 C3.34 0.04, 5.78 -4.68, 5.49 -5.76 C5.19 -6.84, 3.43 -6.15, 2.47 -5.35 C1.52 -4.54, 0.17 -1.81, -0.24 -0.92 C-0.65 -0.03, -0.04 -0.15, 0 0 M0 0 C-0.31 -0.07, -0.57 0.63, -1.83 -0.41 C-3.09 -1.46, -5.98 -5.62, -7.57 -6.27 C-9.16 -6.93, -10.52 -5.79, -11.36 -4.35 C-12.2 -2.91, -12.63 0.53, -12.61 2.37 C-12.6 4.22, -10.47 5.65, -11.27 6.74 C-12.07 7.83, -16.44 7.74, -17.42 8.89 C-18.41 10.04, -18.04 12.9, -17.2 13.64 C-16.36 14.39, -13.8 14.04, -12.38 13.35 C-10.96 12.66, -10.16 8.72, -8.7 9.48 C-7.24 10.23, -5 16.42, -3.62 17.87 C-2.24 19.32, -0.39 20.35, -0.42 18.17 C-0.44 15.99, -4.08 7.1, -3.78 4.8 C-3.48 2.5, 0.23 4.17, 1.39 4.35 C2.54 4.53, 1.85 5.61, 3.16 5.87 C4.47 6.12, 7.96 6.74, 9.24 5.87 C10.51 5, 11.64 1.43, 10.8 0.63 C9.97 -0.16, 5.11 2.18, 4.22 1.11 C3.34 0.04, 5.78 -4.68, 5.49 -5.76 C5.19 -6.84, 3.43 -6.15, 2.47 -5.35 C1.52 -4.54, 0.17 -1.81, -0.24 -0.92 C-0.65 -0.03, -0.04 -0.15, 0 0" stroke="#087f5b" stroke-width="1" fill="none"></path></g></g><g stroke-linecap="round"><g stroke-opacity="0.9" fill-opacity="0.9" transform="translate(584.272128283334 70.68669334746687) rotate(0 21.163578880024545 0.17326523659285442)"><path d="M-0.47 -0.9 C6.71 -0.7, 35.82 1.02, 42.79 1 M1.49 1.24 C8.6 1.15, 35.14 -0.35, 42.21 -0.6" stroke="#000000" stroke-width="1" fill="none"></path></g></g><g stroke-linecap="round"><g stroke-opacity="0.9" fill-opacity="0.9" transform="translate(589.3674573131084 55.252164420500776) rotate(0 14.659303301924297 2.6275724513134264)"><path d="M0 0 C0.13 0.38, 0.09 1.58, 0.77 2.28 C1.46 2.97, 2.81 3.68, 4.1 4.19 C5.4 4.7, 6.64 5.13, 8.54 5.34 C10.43 5.55, 12.97 5.55, 15.48 5.45 C17.99 5.34, 21.44 5.28, 23.58 4.71 C25.72 4.14, 27.36 2.86, 28.32 2.03 C29.27 1.2, 29.15 0.12, 29.32 -0.26 M0 0 C0.13 0.38, 0.09 1.58, 0.77 2.28 C1.46 2.97, 2.81 3.68, 4.1 4.19 C5.4 4.7, 6.64 5.13, 8.54 5.34 C10.43 5.55, 12.97 5.55, 15.48 5.45 C17.99 5.34, 21.44 5.28, 23.58 4.71 C25.72 4.14, 27.36 2.86, 28.32 2.03 C29.27 1.2, 29.15 0.12, 29.32 -0.26" stroke="#000000" stroke-width="1" fill="none"></path></g></g><g stroke-opacity="0.9" fill-opacity="0.9" stroke-linecap="round" transform="translate(597.4413732370278 48.34129015469318) rotate(0 7.764217176558077 22.41115194065472)"><path d="M4.9 1.8 C6.47 0.05, 8.7 -0.01, 10.49 1.57 C12.29 3.15, 14.98 7.07, 15.68 11.3 C16.38 15.54, 15.23 22.26, 14.7 26.98 C14.16 31.7, 13.77 36.71, 12.47 39.62 C11.17 42.53, 8.59 44.45, 6.9 44.45 C5.21 44.46, 3.38 42.87, 2.33 39.66 C1.28 36.45, 0.64 30.24, 0.59 25.18 C0.54 20.12, 0.91 13.41, 2.02 9.31 C3.12 5.22, 5.95 2.03, 7.24 0.6 C8.52 -0.84, 9.51 0.58, 9.73 0.73 M6.01 1.62 C7.8 0.39, 10.44 0.11, 12.14 2.01 C13.85 3.92, 15.63 8.48, 16.22 13.06 C16.81 17.63, 16.39 24.56, 15.7 29.46 C15 34.36, 13.39 40.14, 12.05 42.44 C10.71 44.75, 9.35 44, 7.63 43.3 C5.92 42.6, 2.81 41.74, 1.78 38.24 C0.76 34.74, 1.42 27.35, 1.48 22.3 C1.55 17.26, 1.57 11.48, 2.16 7.99 C2.76 4.49, 4.4 2.61, 5.06 1.33 C5.73 0.06, 6.1 0.21, 6.16 0.34" stroke="#000000" stroke-width="1" fill="none"></path></g><g stroke-linecap="round"><g stroke-opacity="0.9" fill-opacity="0.9" transform="translate(590.8834088227343 86.98925647894168) rotate(0 14.659303301924297 -2.712622320327597)"><path d="M0 0 C0.68 -0.72, 2.68 -3.4, 4.1 -4.32 C5.53 -5.24, 6.64 -5.3, 8.54 -5.52 C10.43 -5.73, 12.97 -5.73, 15.48 -5.63 C17.99 -5.52, 21.44 -5.45, 23.58 -4.86 C25.72 -4.28, 27.36 -2.95, 28.32 -2.1 C29.27 -1.24, 29.15 -0.12, 29.32 0.27 M0 0 C0.68 -0.72, 2.68 -3.4, 4.1 -4.32 C5.53 -5.24, 6.64 -5.3, 8.54 -5.52 C10.43 -5.73, 12.97 -5.73, 15.48 -5.63 C17.99 -5.52, 21.44 -5.45, 23.58 -4.86 C25.72 -4.28, 27.36 -2.95, 28.32 -2.1 C29.27 -1.24, 29.15 -0.12, 29.32 0.27" stroke="#000000" stroke-width="1" fill="none"></path></g></g><g transform="translate(554.1259765625 133.55102040816325) rotate(0 59 13)"><text x="0" y="18" font-family="Virgil, Segoe UI Emoji" font-size="20px" fill="#000000" text-anchor="start" style="white-space: pre;" direction="ltr">Web browser</text></g><g stroke-linecap="round"><g transform="translate(319.0906681065887 31.72482823596488) rotate(0 -3.3781130208082573 48.83990427699317)" fill-rule="evenodd"><path d="M-49.53 17.89 C-49.53 17.89, -49.53 17.89, -49.53 17.89 M-49.53 17.89 C-49.53 17.89, -49.53 17.89, -49.53 17.89 M-50.24 23.82 C-47.77 20.34, -43.89 18.92, -41.75 15.17 M-50.01 24.53 C-47.55 21.59, -45.73 19.09, -42.09 15.69 M-48.19 31.3 C-46.08 26.13, -42.27 21.02, -35.71 11.23 M-50.15 29.85 C-43.03 23.08, -37.72 17.1, -34 12.17 M-47.94 35.14 C-44.92 29.74, -39.83 21.31, -27.78 10.9 M-49.9 36.53 C-44.89 31.19, -39.71 24.28, -27.01 9.49 M-48.99 43.97 C-41.95 33.59, -30.36 21.1, -18.31 6.55 M-50.77 42.09 C-39.63 31.93, -30.04 19.46, -17.59 6.68 M-51.67 50.88 C-43.5 38.63, -33.27 31.82, -9.59 2.93 M-49.71 49.17 C-40.29 36.14, -28.2 24.19, -11.45 3.09 M-49.45 52.83 C-36.88 40.96, -24.05 24.76, -1.52 1.48 M-49.36 55.51 C-32.21 35.07, -14.64 13.92, -3.65 1.04 M-48.75 62.92 C-32.23 38.43, -14.05 20.48, 1.06 -0.26 M-49.97 60.37 C-36.05 44.76, -23.82 29.81, 2.09 1.53 M-50.3 67.12 C-38.46 52.26, -25.8 36.12, 5.79 5.13 M-50.91 67.37 C-30.73 44.71, -10.62 22.7, 4.54 4 M-48.3 71.8 C-27.36 48.39, -4.75 20.14, 7.52 4.7 M-49.96 74.11 C-31.65 54.38, -14.18 33.37, 9.65 6.27 M-47.11 76.19 C-26.88 51.91, -6.42 29.63, 13.79 7.89 M-48.07 76.81 C-35.26 63.15, -22.51 48.45, 11.9 7.42 M-45 76.68 C-28.59 60.87, -16.84 44.6, 17.54 9.52 M-43.34 78.72 C-25.33 57.32, -7.92 35.64, 16.85 8.88 M-38.22 78.52 C-24.09 64.36, -11.48 45.15, 21.24 10.05 M-41.07 79.94 C-18.95 55.59, 2.24 32.64, 21.16 10.86 M-36.16 82.88 C-22.27 69.11, -9.39 54.09, 23.54 12.33 M-37.2 82.57 C-21.95 66.46, -8.65 50.3, 25.15 11.17 M-32 85.52 C-12.56 61.37, 11.6 36.74, 27.47 13.81 M-32.97 83.59 C-12.72 61.46, 6.2 38.39, 28.81 13.61 M-27.93 86.1 C-9.6 66.19, 9.32 45.71, 31.77 15.12 M-28.31 86.2 C-5.87 58.23, 18.54 31.01, 31.05 16.61 M-24.36 89.42 C-4.92 60, 18.51 36.93, 33.69 17.22 M-25.19 87.24 C-6.08 65.93, 14.31 42.35, 36.38 18.6 M-21.26 90.65 C-8.03 77.08, 4.16 61.91, 39.71 18.75 M-21.03 90.54 C-3.95 68.73, 14.21 48.38, 39.46 19.39 M-19.32 92.6 C-2.01 71.8, 15.36 51.25, 44.97 20.46 M-18.05 92.32 C-0.96 70.09, 18.58 51.53, 44.45 20.74 M-13.25 94.96 C2.95 70.65, 23.97 52.7, 41.42 26 M-14.68 92.51 C0.22 76.52, 13.87 60.68, 43.05 27.38 M-9.02 95.55 C10.54 71.13, 30.64 46.71, 44.39 33.13 M-10.86 96.2 C9.51 70.79, 30.05 47.17, 42.85 34.17 M-9.11 95.58 C11.11 75.02, 26.74 55.78, 40.83 39.5 M-7.51 96.93 C10.05 77.27, 28.68 56.62, 43.55 40.15 M-1.75 100.89 C12.17 82.91, 27.26 64.62, 41.33 45.88 M-3.83 98.16 C12.87 80.24, 30.71 60.29, 42.82 45.84 M7.07 93.17 C17.65 79.39, 32.27 66.44, 44.27 52.44 M4.53 94.53 C17.93 81.8, 29.56 68.49, 42.29 51.65 M13.25 88.54 C20.56 83.87, 27.76 76.95, 42.49 59.5 M15.02 90.63 C24.46 77.86, 35.75 67.4, 42.16 58.72 M22.48 83.76 C32.23 77.29, 39.42 69.41, 43.4 63.72 M23.96 85.27 C29.1 80.06, 32.34 76.02, 43.12 65.31 M32.02 82.54 C35.25 79.69, 37.05 76.09, 40.93 70.78 M33.53 82.13 C35.58 77.69, 39.28 74.41, 41.82 71.32 M-49.95 74.23 C-49.95 74.23, -49.95 74.23, -49.95 74.23 M-49.95 74.23 C-49.95 74.23, -49.95 74.23, -49.95 74.23 M-36.55 80.8 C-39.57 76.3, -44.82 73.96, -48.92 67.72 M-35.85 82.15 C-40.34 76.82, -45.46 72.28, -51.16 68.11 M-18.71 87.82 C-26.65 82.65, -35.89 76.75, -49.26 64.46 M-21.39 88.63 C-31.12 80.96, -41.69 71.15, -50.35 63.62 M-4.58 95.61 C-16.57 88.16, -23.4 81.76, -48.9 60.03 M-6.39 97.45 C-16.56 88.87, -24.88 79.32, -49.13 57.68 M-1.01 94.77 C-12.61 84.55, -25.84 72.47, -51.97 54.5 M-1.27 95.61 C-18.73 80.12, -36.24 64.08, -49.26 53 M3.23 90.76 C-16.04 75.96, -32.27 63.27, -49.84 46.29 M1.85 93.39 C-8.67 82.58, -19.26 74.69, -48.7 48.26 M7.6 92.17 C-9.21 75.86, -26.98 62.53, -51.67 40.83 M5.13 90.87 C-16.16 70.78, -39.36 51.8, -50.2 42.87 M8.5 89.29 C-11.28 70.09, -35.31 48.85, -51.6 37.08 M9.66 88.55 C-4.13 78.27, -17.49 65.33, -50.69 37.62 M12.35 85.28 C-9.89 68.49, -30.02 45.72, -51.27 32.12 M12.34 86.66 C-7.66 70.71, -25.93 52.19, -49.93 31.48 M16.56 83.39 C-3.6 69.05, -21.67 47.82, -50.87 28.45 M16.76 84.51 C-8.58 63, -34.79 39.02, -49.6 26.87 M19.77 84.31 C1.45 66.54, -15.18 51.25, -48.05 21.16 M21.34 83.95 C-6.82 58.66, -32.63 36.34, -48.44 21.08 M27.64 81.99 C-2.28 58.09, -26.89 36.76, -47.74 15.26 M24.92 81.36 C10.86 68.42, -4.17 56.4, -48.13 17.66 M30.04 79.64 C12.86 64.53, -8.24 49.11, -43.86 17.46 M29.93 79.7 C11.95 63.9, -6.22 49.01, -45.11 16.4 M34.85 77.53 C7.99 55.37, -13.95 36.44, -39.63 12.35 M33.99 78.53 C7.97 55.95, -17.46 32.56, -39.09 13.53 M38.18 74.37 C17.98 58.87, -6.69 39.92, -37.01 13.4 M38.01 75.43 C13.63 54.34, -11.52 31.93, -36.54 12.9 M41.4 74.52 C20.15 57.53, 0.19 38.15, -32.69 10.3 M41.11 73.35 C18.04 53.88, -4.71 33.24, -30.87 11.48 M43.35 70.49 C23.57 54.87, 5.99 36.99, -25.89 7.53 M44.73 71.31 C25.14 52.92, 4.11 35.58, -26.28 9.98 M45.12 67.02 C28.96 52.77, 15.83 42.61, -22.61 6.97 M43.22 66.51 C17.29 43.34, -7.86 21.1, -22.2 7.66 M45.56 61.45 C23.28 41.48, -3.15 19.52, -20.31 5.13 M43.31 60.84 C25.04 43.68, 3.22 25.28, -18.06 5.62 M42.49 57.13 C20.64 34.24, -1.22 16.46, -16.24 3.73 M45.13 56.51 C30.62 43.51, 16.14 32.18, -13.78 3.53 M44.75 49.33 C30.38 34.79, 14.02 23.47, -11.9 3.63 M44.11 49.94 C28.49 36.32, 14.05 23.84, -10.29 1.71 M45.14 44.39 C25.41 27.51, 4.79 10.7, -5.54 2.71 M43.92 45.16 C28.31 30.77, 10.61 17.01, -6.24 1.11 M45.96 40.44 C25.07 24.16, 7.81 6.66, -0.43 -1.47 M43.75 38.56 C28.56 25.81, 12.95 10.32, -0.31 0.09 M43.78 33.84 C30.74 22.37, 15.02 9.38, 1.64 -3.15 M45.01 33.53 C30.83 22.03, 17.46 10.7, 3.1 -2.93 M42.87 27.88 C38.69 22.26, 31.16 19.51, 16.23 4.74 M44.66 29.25 C34.35 19.82, 22.66 9.75, 15.64 3.77 M44.26 23.97 C41.81 20.23, 37.46 15.53, 27.97 8.94 M44.11 24 C39.94 18.91, 36.18 15.72, 28.61 9.7" stroke="#228be6" stroke-width="0.5" fill="none"></path><path d="M-0.86 -0.76 C-9.9 5.3, -23.83 7.99, -49.71 19 M0.04 0.19 C-19.1 6.01, -39.85 14.09, -49.5 17.94 M-50.79 16.62 C-47.9 36.92, -47.64 55.91, -50.21 72.07 M-49.97 18.58 C-50.83 31.76, -49.96 44.89, -49.38 75.03 M-50.74 73.77 C-34.32 82.02, -14.16 89.76, -4.67 97.51 M-50.48 73.79 C-40.79 79.8, -30.77 83.75, -6.11 96.99 M-5.79 98.44 C13.56 86.97, 31.21 76.71, 39.33 74.31 M-5.84 97.61 C12.48 87.38, 30.95 78.19, 40.75 73.77 M39.3 71.85 C41.84 53.55, 41.23 31.73, 40.49 20.24 M40.47 73.4 C41.51 54.85, 43.1 34.01, 41.35 19.26 M44.03 19.92 C28.78 13.52, 11.68 7.32, -1.06 1.88 M41.7 19.46 C33.75 15.39, 23.72 11.3, 0.61 -0.4 M0 0 C0 0, 0 0, 0 0 M0 0 C0 0, 0 0, 0 0" stroke="#1864ab" stroke-width="1" fill="none"></path></g></g><g stroke-linecap="round"><g transform="translate(136.1259765625001 58.38742806542385) rotate(0 57.99999999999997 -0.4182038286302969)"><path d="M0 0 C19.33 -0.14, 96.67 -0.7, 116 -0.84 M0 0 C19.33 -0.14, 96.67 -0.7, 116 -0.84" stroke="#000000" stroke-width="1" fill="none"></path></g><g transform="translate(136.1259765625001 58.38742806542385) rotate(0 57.99999999999997 -0.4182038286302969)"><path d="M87.88 9.63 C95.77 6.69, 103.65 3.76, 116 -0.84 M87.88 9.63 C98.56 5.65, 109.24 1.68, 116 -0.84" stroke="#000000" stroke-width="1" fill="none"></path></g><g transform="translate(136.1259765625001 58.38742806542385) rotate(0 57.99999999999997 -0.4182038286302969)"><path d="M87.74 -10.89 C95.66 -8.07, 103.58 -5.25, 116 -0.84 M87.74 -10.89 C98.47 -7.07, 109.21 -3.25, 116 -0.84" stroke="#000000" stroke-width="1" fill="none"></path></g></g><g stroke-linecap="round"><g transform="translate(247.12597656250006 89.55102040816325) rotate(0 -52 -0.8901785656304924)"><path d="M0 0 C-17.33 -0.3, -86.67 -1.48, -104 -1.78 M0 0 C-17.33 -0.3, -86.67 -1.48, -104 -1.78" stroke="#000000" stroke-width="1" fill="none"></path></g><g transform="translate(247.12597656250006 89.55102040816325) rotate(0 -52 -0.8901785656304924)"><path d="M-75.64 -11.56 C-81.65 -9.48, -87.67 -7.41, -104 -1.78 M-75.64 -11.56 C-81.84 -9.42, -88.04 -7.28, -104 -1.78" stroke="#000000" stroke-width="1" fill="none"></path></g><g transform="translate(247.12597656250006 89.55102040816325) rotate(0 -52 -0.8901785656304924)"><path d="M-75.99 8.96 C-81.93 6.68, -87.87 4.41, -104 -1.78 M-75.99 8.96 C-82.11 6.61, -88.24 4.26, -104 -1.78" stroke="#000000" stroke-width="1" fill="none"></path></g></g><g stroke-linecap="round"><g transform="translate(373.1259765625 53.551020408163254) rotate(0 81 -0.5677133631899096)"><path d="M0 0 C27 -0.19, 135 -0.95, 162 -1.14 M0 0 C27 -0.19, 135 -0.95, 162 -1.14" stroke="#000000" stroke-width="1" fill="none"></path></g><g transform="translate(373.1259765625 53.551020408163254) rotate(0 81 -0.5677133631899096)"><path d="M133.88 9.32 C139.74 7.14, 145.6 4.96, 162 -1.14 M133.88 9.32 C142.53 6.11, 151.17 2.89, 162 -1.14" stroke="#000000" stroke-width="1" fill="none"></path></g><g transform="translate(373.1259765625 53.551020408163254) rotate(0 81 -0.5677133631899096)"><path d="M133.74 -11.2 C139.63 -9.1, 145.52 -7, 162 -1.14 M133.74 -11.2 C142.43 -8.1, 151.12 -5.01, 162 -1.14" stroke="#000000" stroke-width="1" fill="none"></path></g></g><g stroke-linecap="round"><g transform="translate(531.1259765625 89.6724465892413) rotate(0 -79 -0.560713090539025)"><path d="M0 0 C-26.33 -0.19, -131.67 -0.93, -158 -1.12 M0 0 C-26.33 -0.19, -131.67 -0.93, -158 -1.12" stroke="#000000" stroke-width="1" fill="none"></path></g><g transform="translate(531.1259765625 89.6724465892413) rotate(0 -79 -0.560713090539025)"><path d="M-129.74 -11.18 C-139.41 -7.74, -149.08 -4.3, -158 -1.12 M-129.74 -11.18 C-139.7 -7.63, -149.67 -4.09, -158 -1.12" stroke="#000000" stroke-width="1" fill="none"></path></g><g transform="translate(531.1259765625 89.6724465892413) rotate(0 -79 -0.560713090539025)"><path d="M-129.88 9.34 C-139.5 5.76, -149.13 2.18, -158 -1.12 M-129.88 9.34 C-139.8 5.65, -149.71 1.96, -158 -1.12" stroke="#000000" stroke-width="1" fill="none"></path></g></g><g transform="translate(246 136.55102040816325) rotate(0 79 23)"><text x="0" y="32" font-family="Virgil, Segoe UI Emoji" font-size="36px" fill="#1864ab" text-anchor="start" style="white-space: pre;" direction="ltr">webdriver</text></g><g transform="translate(401 19.36545339785397) rotate(0 51 12.5)"><text x="0" y="17" font-family="Virgil, Segoe UI Emoji" font-size="18.927835051546392px" fill="#000000" text-anchor="start" style="white-space: pre;" direction="ltr">(via driver)</text></g><g transform="translate(10 10) rotate(0 53.5 56.7755102040816)"><text x="0" y="84.55102040816323" font-family="Virgil, Segoe UI Emoji" font-size="78.61224489795921px" fill="#000000" text-anchor="start" style="white-space: pre;" direction="ltr">🤖</text></g></svg>