<svg version="1.1" xmlns="http://www.w3.org/2000/svg" viewBox="0 0 401.33331298828125 338.8333511352539" width="401.33331298828125" height="338.8333511352539">
  <!-- svg-source:excalidraw -->
  
  <defs>
    <style>
      @font-face {
        font-family: "Virgil";
        src: url("https://excalidraw.com/Virgil.woff2");
      }
      @font-face {
        font-family: "Cascadia";
        src: url("https://excalidraw.com/Cascadia.woff2");
      }
    </style>
  </defs>
  <rect x="0" y="0" width="401.33331298828125" height="338.8333511352539" fill="#ffffff"></rect><g stroke-linecap="round" transform="translate(106.66665649414062 10) rotate(0 58.666656494140625 34.66667175292969)"><path d="M4.61 4.01 C4.61 4.01, 4.61 4.01, 4.61 4.01 M4.61 4.01 C4.61 4.01, 4.61 4.01, 4.61 4.01 M1.07 14.18 C3.38 10.56, 7.43 9.05, 11.57 2.11 M1.07 14.18 C5.09 10.28, 9.1 4.35, 11.57 2.11 M1.47 19.83 C4.16 17.65, 10.76 10.01, 17.87 0.96 M1.47 19.83 C5.78 14.6, 9.96 10.12, 17.87 0.96 M1.21 26.22 C10.38 17.85, 15.69 9.16, 23.51 0.56 M1.21 26.22 C7.31 18.64, 13.92 11.24, 23.51 0.56 M0.94 32.62 C10.96 23.6, 16.21 12.85, 28.5 0.92 M0.94 32.62 C8.02 23.37, 17.15 14.86, 28.5 0.92 M1.34 38.26 C11.99 25.72, 26.12 9.72, 34.14 0.53 M1.34 38.26 C12.51 25.16, 23.77 11.01, 34.14 0.53 M1.08 44.66 C15.08 28.76, 30.95 12.36, 39.13 0.89 M1.08 44.66 C14.69 28.29, 28.82 12.31, 39.13 0.89 M1.47 50.3 C13.68 35.65, 22.5 22.55, 44.77 0.49 M1.47 50.3 C11.12 38.18, 22.29 28.16, 44.77 0.49 M1.21 56.7 C14.44 41.39, 22.44 28.26, 49.76 0.85 M1.21 56.7 C11.55 44.82, 22.9 32, 49.76 0.85 M2.92 60.84 C18.35 42.56, 34.74 21.18, 55.4 0.46 M2.92 60.84 C19.3 41.3, 35.87 22.2, 55.4 0.46 M4.62 64.97 C17.6 53.9, 26.97 38.46, 60.39 0.82 M4.62 64.97 C24 40.83, 44.74 18.67, 60.39 0.82 M7.64 67.59 C25.52 46.11, 40.55 27.9, 66.03 0.42 M7.64 67.59 C19.83 52.37, 32.48 37.14, 66.03 0.42 M11.97 68.71 C36.24 40.27, 59.51 15.72, 71.02 0.78 M11.97 68.71 C31.65 46.09, 51.08 23, 71.02 0.78 M16.3 69.82 C36.64 45.66, 58.08 23.61, 76.66 0.39 M16.3 69.82 C27.94 56.06, 41.13 39.95, 76.66 0.39 M19.98 71.69 C39.57 49.81, 57.77 28.29, 81.65 0.75 M19.98 71.69 C37.48 53.26, 52.86 32.79, 81.65 0.75 M25.62 71.3 C40.1 55.97, 55.89 35.75, 87.29 0.36 M25.62 71.3 C48.94 44.91, 72.81 16.69, 87.29 0.36 M30.61 71.66 C51.35 45.77, 75.36 21.12, 92.28 0.72 M30.61 71.66 C50.02 51.16, 67.87 28.98, 92.28 0.72 M35.6 72.02 C61.7 44.76, 82.67 16.9, 97.92 0.32 M35.6 72.02 C56.76 46.36, 80.61 19.69, 97.92 0.32 M41.24 71.62 C54.66 58.12, 68.91 41.01, 102.25 1.44 M41.24 71.62 C64.76 45.89, 88.46 19.37, 102.25 1.44 M46.23 71.98 C59.07 58.77, 74.16 44.21, 106.58 2.55 M46.23 71.98 C66.69 47.8, 88.7 24.01, 106.58 2.55 M51.87 71.59 C66.35 54.53, 81.28 37.46, 111.57 2.91 M51.87 71.59 C66.49 54.86, 80.31 37.39, 111.57 2.91 M56.86 71.95 C75.83 50.44, 97.81 27.79, 113.93 6.29 M56.86 71.95 C70.24 55.61, 84.65 41.04, 113.93 6.29 M62.5 71.56 C73.34 58.77, 86.11 40.8, 116.95 8.91 M62.5 71.56 C75.64 54.86, 91.15 39.6, 116.95 8.91 M67.49 71.92 C83.51 54.19, 97.01 42.12, 118 13.8 M67.49 71.92 C85.84 50.1, 104 29.77, 118 13.8 M73.13 71.52 C85.45 58.96, 96.24 42.55, 117.74 20.2 M73.13 71.52 C89 52.52, 106.49 33.18, 117.74 20.2 M78.12 71.88 C88.38 61.3, 97.04 48.41, 118.14 25.84 M78.12 71.88 C92.34 55.83, 107.53 38.41, 118.14 25.84 M83.76 71.49 C95.28 59.21, 107.12 47.72, 117.87 32.24 M83.76 71.49 C95.5 57.93, 108.3 42.91, 117.87 32.24 M88.75 71.85 C100.04 60.2, 112.01 45.34, 118.27 37.88 M88.75 71.85 C94.51 63.48, 101.24 55.89, 118.27 37.88 M94.39 71.45 C98.35 64.18, 102.35 60.64, 118.01 44.28 M94.39 71.45 C103.9 61.79, 110.53 51.58, 118.01 44.28 M100.69 70.3 C105.73 67.2, 107.64 60.23, 118.4 49.93 M100.69 70.3 C106.68 63.44, 111.48 57.49, 118.4 49.93 M107.64 68.4 C112.02 66.23, 112.02 63.1, 120.11 54.06 M107.64 68.4 C111.42 62.32, 116.72 57.51, 120.11 54.06" stroke="#ced4da" stroke-width="0.5" fill="none"></path><path d="M17.33 0 M17.33 0 C39.98 0.07, 60.69 -0.49, 100 0 M17.33 0 C46.69 0.85, 76.69 1.2, 100 0 M100 0 C112.01 1.62, 118.27 4.95, 117.33 17.33 M100 0 C110.7 -0.23, 116.9 6.91, 117.33 17.33 M117.33 17.33 C118.57 28.69, 118.17 41.18, 117.33 52 M117.33 17.33 C116.42 27.57, 116.63 38.03, 117.33 52 M117.33 52 C117.08 61.59, 111.71 70.27, 100 69.33 M117.33 52 C116.48 61.45, 112.77 71.24, 100 69.33 M100 69.33 C79.38 70.16, 56.77 67.74, 17.33 69.33 M100 69.33 C70 69.29, 41.17 70.44, 17.33 69.33 M17.33 69.33 C5.61 67.57, -1.17 63.72, 0 52 M17.33 69.33 C7.36 68.25, -1.18 64.28, 0 52 M0 52 C-2.06 37.12, 0.1 24.24, 0 17.33 M0 52 C-0.37 43.57, 0.57 33.87, 0 17.33 M0 17.33 C-1.06 7.76, 5.88 -1.85, 17.33 0 M0 17.33 C0.3 5.52, 5.85 -0.44, 17.33 0" stroke="#495057" stroke-width="1" fill="none"></path></g><g transform="translate(111.66665649414062 32.16667175292969) rotate(0 53.5 12.5)"><text x="53.5" y="18" font-family="Virgil, Segoe UI Emoji" font-size="20px" fill="#495057" text-anchor="middle" style="white-space: pre;" direction="ltr">OS</text></g><g stroke-linecap="round" transform="translate(106.6666259765625 116.66664123535156) rotate(0 58.666656494140625 34.66667175292969)"><path d="M4.61 4.01 C4.61 4.01, 4.61 4.01, 4.61 4.01 M4.61 4.01 C4.61 4.01, 4.61 4.01, 4.61 4.01 M1.07 14.18 C4.66 9.7, 6.49 7.82, 11.57 2.11 M1.07 14.18 C5.44 9.92, 9.63 5.67, 11.57 2.11 M1.47 19.83 C6.88 12.56, 13.43 5.12, 17.87 0.96 M1.47 19.83 C5.9 12.94, 11.1 7.13, 17.87 0.96 M1.21 26.22 C5.06 21.09, 13.51 12.67, 23.51 0.56 M1.21 26.22 C7.22 17.06, 14.34 8.81, 23.51 0.56 M0.94 32.62 C8.15 26.47, 13.11 16.9, 28.5 0.92 M0.94 32.62 C10.17 21.9, 17.89 12.89, 28.5 0.92 M1.34 38.26 C12.69 23.89, 24.68 11.48, 34.14 0.53 M1.34 38.26 C14.23 24.3, 24.84 11.92, 34.14 0.53 M1.08 44.66 C12.04 30.53, 26.41 16.89, 39.13 0.89 M1.08 44.66 C15.62 26.35, 31.71 8.85, 39.13 0.89 M1.47 50.3 C18.15 30.49, 34.17 12.81, 44.77 0.49 M1.47 50.3 C13.31 36, 27.07 21.57, 44.77 0.49 M1.21 56.7 C19.71 36.22, 37.17 13.57, 49.76 0.85 M1.21 56.7 C19.19 36.38, 38.12 13.79, 49.76 0.85 M2.92 60.84 C25.26 38.1, 42.58 12.83, 55.4 0.46 M2.92 60.84 C14.98 46.38, 27.41 32.09, 55.4 0.46 M4.62 64.97 C23.04 44.2, 37.38 24.26, 60.39 0.82 M4.62 64.97 C23.87 44.53, 40.43 24.27, 60.39 0.82 M7.64 67.59 C31.48 42.1, 52.22 17.31, 66.03 0.42 M7.64 67.59 C25.32 47.56, 43.7 27.22, 66.03 0.42 M11.97 68.71 C26.52 52.87, 37.92 39.14, 71.02 0.78 M11.97 68.71 C28.62 48.85, 44.79 31.32, 71.02 0.78 M16.3 69.82 C38.55 46.02, 58.84 18.98, 76.66 0.39 M16.3 69.82 C36.8 48.22, 55.12 26.75, 76.66 0.39 M19.98 71.69 C42.94 48.8, 64.72 21, 81.65 0.75 M19.98 71.69 C40.36 50.57, 59.82 27.86, 81.65 0.75 M25.62 71.3 C37.11 58.07, 49.88 41.42, 87.29 0.36 M25.62 71.3 C43.63 50.45, 61.73 29.03, 87.29 0.36 M30.61 71.66 C52.28 45.5, 72.77 22.31, 92.28 0.72 M30.61 71.66 C48.42 53.14, 65.36 32.73, 92.28 0.72 M35.6 72.02 C57.99 46.65, 83.89 16.36, 97.92 0.32 M35.6 72.02 C58.97 45.61, 80.05 19.24, 97.92 0.32 M41.24 71.62 C64 46.11, 89.83 17.96, 102.25 1.44 M41.24 71.62 C55.63 54.33, 72.75 36.63, 102.25 1.44 M46.23 71.98 C69.16 43.68, 95.34 17.04, 106.58 2.55 M46.23 71.98 C63.3 52.53, 78.4 35.31, 106.58 2.55 M51.87 71.59 C68.45 53.5, 84.18 33.6, 111.57 2.91 M51.87 71.59 C69.27 51.08, 85.88 31.84, 111.57 2.91 M56.86 71.95 C77.35 51.09, 95.17 27.46, 113.93 6.29 M56.86 71.95 C70.85 57.02, 84.84 41.3, 113.93 6.29 M62.5 71.56 C79.02 54.23, 92.58 37.35, 116.95 8.91 M62.5 71.56 C79.72 52.82, 95.36 32.96, 116.95 8.91 M67.49 71.92 C86.14 47.94, 106.34 25.26, 118 13.8 M67.49 71.92 C82.19 53.14, 98.98 36.42, 118 13.8 M73.13 71.52 C82.8 58.23, 91.37 46.99, 117.74 20.2 M73.13 71.52 C88.35 53.73, 102.04 36.66, 117.74 20.2 M78.12 71.88 C87.99 58.43, 99.68 45.55, 118.14 25.84 M78.12 71.88 C88.51 59.84, 98.17 49.87, 118.14 25.84 M83.76 71.49 C90.98 61.16, 100.91 50.64, 117.87 32.24 M83.76 71.49 C94.4 59.16, 104.7 47.52, 117.87 32.24 M88.75 71.85 C101.1 60.13, 112.83 46.92, 118.27 37.88 M88.75 71.85 C99.46 58.93, 110.89 46.59, 118.27 37.88 M94.39 71.45 C103.67 61.32, 111.39 52.52, 118.01 44.28 M94.39 71.45 C100.14 63.76, 107.1 56.53, 118.01 44.28 M100.69 70.3 C106.92 63.69, 109.24 59.63, 118.4 49.93 M100.69 70.3 C107.68 62.88, 114.68 54.58, 118.4 49.93 M107.64 68.4 C110.79 64.34, 112.38 62.59, 120.11 54.06 M107.64 68.4 C111.92 63.04, 117.96 56.96, 120.11 54.06" stroke="#ced4da" stroke-width="0.5" fill="none"></path><path d="M17.33 0 M17.33 0 C38.38 -0.78, 56.48 -2.1, 100 0 M17.33 0 C42.33 0.75, 67.92 1.07, 100 0 M100 0 C112.3 0.61, 116.28 7.76, 117.33 17.33 M100 0 C111.67 -2.13, 117.63 5.52, 117.33 17.33 M117.33 17.33 C115.57 29.03, 117.43 37.76, 117.33 52 M117.33 17.33 C116.6 25.77, 117.38 35.01, 117.33 52 M117.33 52 C115.45 62.8, 111.92 67.46, 100 69.33 M117.33 52 C115.46 61.39, 113.81 67.4, 100 69.33 M100 69.33 C72.4 69.16, 45.8 70.18, 17.33 69.33 M100 69.33 C83.55 70.15, 65.82 69.16, 17.33 69.33 M17.33 69.33 C6.02 71.15, -1.49 63.11, 0 52 M17.33 69.33 C5.03 67.17, -2.25 63.98, 0 52 M0 52 C0.76 42.07, -2.19 37.23, 0 17.33 M0 52 C0.76 39.21, -0.5 25.76, 0 17.33 M0 17.33 C1.79 4.4, 4.75 0.13, 17.33 0 M0 17.33 C-2.18 3.49, 7.65 0.22, 17.33 0" stroke="#495057" stroke-width="1" fill="none"></path></g><g transform="translate(111.66665649414062 32.16667175292969) rotate(0 53.666656494140625 12.5)"><text x="53.666656494140625" y="18" font-family="Virgil, Segoe UI Emoji" font-size="20.06230149313668px" fill="#495057" text-anchor="middle" style="white-space: pre;" direction="ltr">OS</text></g><g transform="translate(111.6666259765625 138.83331298828125) rotate(0 53.666656494140625 12.5)"><text x="53.666656494140625" y="18" font-family="Virgil, Segoe UI Emoji" font-size="20.06230149313668px" fill="#495057" text-anchor="middle" style="white-space: pre;" direction="ltr">JRE</text></g><g transform="translate(242.33328247070312 28.166656494140625) rotate(0 21 10)"><text x="0" y="14" font-family="Virgil, Segoe UI Emoji" font-size="16px" fill="#495057" text-anchor="start" style="white-space: pre;" direction="ltr">70Mo</text></g><g transform="translate(241.66665649414062 132.16665649414062) rotate(0 24 10)"><text x="0" y="14" font-family="Virgil, Segoe UI Emoji" font-size="16px" fill="#495057" text-anchor="start" style="white-space: pre;" direction="ltr">125Mo</text></g><g stroke-linecap="round" transform="translate(10 226.66664123535156) rotate(0 58.666656494140625 34.66667175292969)"><path d="M17.33 0 M17.33 0 C40.19 -1.93, 62.76 0.46, 100 0 M17.33 0 C47.26 1.09, 76.26 0.04, 100 0 M100 0 C111.88 -1.97, 117.33 7.25, 117.33 17.33 M100 0 C112.35 -0.06, 119.22 6.77, 117.33 17.33 M117.33 17.33 C119.28 27.07, 115.82 33.27, 117.33 52 M117.33 17.33 C118.31 26.48, 117.75 32.9, 117.33 52 M117.33 52 C115.38 61.81, 109.59 70.24, 100 69.33 M117.33 52 C115.09 62.32, 111.43 69.83, 100 69.33 M100 69.33 C76.17 68.21, 53.69 68.11, 17.33 69.33 M100 69.33 C71.32 69.46, 44.19 68.26, 17.33 69.33 M17.33 69.33 C4.66 70.33, 0.94 64.81, 0 52 M17.33 69.33 C4.4 71.11, 0.16 63.98, 0 52 M0 52 C-1.76 44.81, 1 33.77, 0 17.33 M0 52 C-0.23 39.26, -0.42 24.16, 0 17.33 M0 17.33 C-0.9 6.59, 7.44 -0.56, 17.33 0 M0 17.33 C-1.15 5.36, 8.06 -2.3, 17.33 0" stroke="#364fc7" stroke-width="1" fill="none"></path></g><g transform="translate(15 248.83331298828125) rotate(0 53.666656494140625 12.5)"><text x="53.666656494140625" y="18" font-family="Virgil, Segoe UI Emoji" font-size="20.124797060075714px" fill="#364fc7" text-anchor="middle" style="white-space: pre;" direction="ltr">app-v1.jar</text></g><g transform="translate(49.333282470703125 305.6666564941406) rotate(0 21 10)"><text x="0" y="14" font-family="Virgil, Segoe UI Emoji" font-size="16px" fill="#364fc7" text-anchor="start" style="white-space: pre;" direction="ltr">70Mo</text></g><g stroke-linecap="round" transform="translate(142.99993896484375 231.1666488647461) rotate(0 58.666656494140625 34.66667175292969)"><path d="M17.33 0 M17.33 0 C35.8 2.01, 60.05 -0.06, 100 0 M17.33 0 C45.8 0.19, 76.47 -1.3, 100 0 M100 0 C110.53 0.13, 115.44 3.79, 117.33 17.33 M100 0 C113.43 0.22, 117.08 6.35, 117.33 17.33 M117.33 17.33 C118.07 32.51, 115.64 45.87, 117.33 52 M117.33 17.33 C117.21 24.52, 117.85 32.84, 117.33 52 M117.33 52 C117.91 65.19, 110.69 69.7, 100 69.33 M117.33 52 C119.01 63.1, 113.46 71.03, 100 69.33 M100 69.33 C75.23 68.33, 50.78 69.66, 17.33 69.33 M100 69.33 C78.24 70.22, 57.64 68.91, 17.33 69.33 M17.33 69.33 C5.25 68.01, -1.55 64.98, 0 52 M17.33 69.33 C8.01 70.36, -0.41 62.22, 0 52 M0 52 C0.75 39.66, -0.57 27.97, 0 17.33 M0 52 C-0.32 41.93, 0.88 32.66, 0 17.33 M0 17.33 C-0.84 7.46, 5.38 0.02, 17.33 0 M0 17.33 C1.43 7.79, 4.7 1.81, 17.33 0" stroke="#364fc7" stroke-width="1" fill="none"></path></g><g transform="translate(147.99993896484375 253.33332061767578) rotate(0 53.666656494140625 12.5)"><text x="53.666656494140625" y="18" font-family="Virgil, Segoe UI Emoji" font-size="20.187487305371484px" fill="#364fc7" text-anchor="middle" style="white-space: pre;" direction="ltr">app-v2.jar</text></g><g transform="translate(175.66653442382812 308.8333511352539) rotate(0 21 10)"><text x="0" y="14" font-family="Virgil, Segoe UI Emoji" font-size="16px" fill="#364fc7" text-anchor="start" style="white-space: pre;" direction="ltr">70Mo</text></g><g stroke-linecap="round" transform="translate(274 231.16661834716797) rotate(0 58.666656494140625 34.66667175292969)"><path d="M17.33 0 M17.33 0 C49.47 0.45, 78.69 1.25, 100 0 M17.33 0 C48.19 0.83, 78.67 0.54, 100 0 M100 0 C113.02 1.96, 117.77 5.41, 117.33 17.33 M100 0 C110.31 -1.28, 115.11 6.62, 117.33 17.33 M117.33 17.33 C116.36 29.13, 117.28 41.1, 117.33 52 M117.33 17.33 C118.19 29.48, 118.12 40.24, 117.33 52 M117.33 52 C116.26 62.53, 113.19 70.87, 100 69.33 M117.33 52 C116.56 62.08, 111.98 71.18, 100 69.33 M100 69.33 C68.65 68.86, 38.7 69.23, 17.33 69.33 M100 69.33 C83.81 69.21, 64.94 67.74, 17.33 69.33 M17.33 69.33 C4.39 68.01, -1.54 63.48, 0 52 M17.33 69.33 C6.27 69.64, -0.71 61.95, 0 52 M0 52 C0.33 42.96, 0.42 37.96, 0 17.33 M0 52 C-0.62 41.92, 0.7 29.65, 0 17.33 M0 17.33 C-0.82 6.7, 7.67 -0.61, 17.33 0 M0 17.33 C-0.08 7.45, 5.75 1.69, 17.33 0" stroke="#364fc7" stroke-width="1" fill="none"></path></g><g transform="translate(279 253.33329010009766) rotate(0 53.666656494140625 12.5)"><text x="53.666656494140625" y="18" font-family="Virgil, Segoe UI Emoji" font-size="20.250372835461604px" fill="#364fc7" text-anchor="middle" style="white-space: pre;" direction="ltr">app-v3.jar</text></g><g transform="translate(306.6665954589844 308.8333206176758) rotate(0 21 10)"><text x="0" y="14" font-family="Virgil, Segoe UI Emoji" font-size="16px" fill="#364fc7" text-anchor="start" style="white-space: pre;" direction="ltr">70Mo</text></g><g stroke-linecap="round"><g transform="translate(160.66665649414062 107.33334350585938) rotate(0 -0.08282413853243042 -10.951761942040175)"><path d="M0.61 1.01 C0.54 -2.57, 0.49 -17.28, 0.26 -20.98 M-0.53 0.5 C-0.79 -3.5, -0.92 -19.54, -0.54 -22.91" stroke="#495057" stroke-width="1" fill="none"></path></g><g transform="translate(160.66665649414062 107.33334350585938) rotate(0 -0.08282413853243042 -10.951761942040175)"><path d="M3.63 -12.53 C1.84 -17.04, 0.5 -20.71, -0.69 -22.13 M2.55 -12.63 C1.02 -16.42, 0.55 -20.74, -0.35 -22.87" stroke="#495057" stroke-width="1" fill="none"></path></g><g transform="translate(160.66665649414062 107.33334350585938) rotate(0 -0.08282413853243042 -10.951761942040175)"><path d="M-3.66 -12.8 C-2.85 -17.25, -1.59 -20.83, -0.69 -22.13 M-4.74 -12.89 C-3.35 -16.58, -0.91 -20.79, -0.35 -22.87" stroke="#495057" stroke-width="1" fill="none"></path></g></g><g stroke-linecap="round"><g transform="translate(68.66665649414062 216.66665649414062) rotate(0 40.451209077071404 -10.0732971806638)"><path d="M-0.57 -0.21 C12.76 -3.08, 65.76 -15.31, 79.19 -18.33 M1.33 -1.37 C15.11 -4.46, 68.49 -16.8, 81.47 -19.93" stroke="#495057" stroke-width="1" fill="none"></path></g><g transform="translate(68.66665649414062 216.66665649414062) rotate(0 40.451209077071404 -10.0732971806638)"><path d="M56.03 -4.84 C64.08 -7.23, 69.94 -11.83, 80.5 -18.5 M56.32 -4.42 C62.14 -7.95, 68.61 -11.6, 81.23 -20.5" stroke="#495057" stroke-width="1" fill="none"></path></g><g transform="translate(68.66665649414062 216.66665649414062) rotate(0 40.451209077071404 -10.0732971806638)"><path d="M51.33 -24.82 C60.3 -22.5, 67.26 -22.41, 80.5 -18.5 M51.62 -24.39 C58.79 -22.83, 66.45 -21.4, 81.23 -20.5" stroke="#495057" stroke-width="1" fill="none"></path></g></g><g stroke-linecap="round"><g transform="translate(199.33328247070312 224.66665649414062) rotate(0 -12.88676258053631 -12.359667381923643)"><path d="M-0.29 -0.67 C-4.69 -5.07, -22.26 -21.96, -26.84 -26.3 M1.76 1.59 C-2.72 -2.64, -22.44 -20.36, -27.53 -24.93" stroke="#495057" stroke-width="1" fill="none"></path></g><g transform="translate(199.33328247070312 224.66665649414062) rotate(0 -12.88676258053631 -12.359667381923643)"><path d="M-11.1 -17.1 C-15.1 -20.44, -20.4 -20.34, -25.96 -23.98 M-10.15 -17.91 C-15.18 -19.73, -19.05 -22.04, -27.11 -24.71" stroke="#495057" stroke-width="1" fill="none"></path></g><g transform="translate(199.33328247070312 224.66665649414062) rotate(0 -12.88676258053631 -12.359667381923643)"><path d="M-19.72 -7.51 C-21.48 -13.34, -24.51 -15.75, -25.96 -23.98 M-18.77 -8.32 C-21.4 -12.8, -22.92 -17.74, -27.11 -24.71" stroke="#495057" stroke-width="1" fill="none"></path></g></g><g stroke-linecap="round"><g transform="translate(327.3332824707031 224) rotate(0 -51.937407074291265 -14.573554866295304)"><path d="M-1.17 -0.89 C-18.48 -5.54, -86.63 -23.88, -103.57 -28.64 M0.41 1.26 C-17.04 -3.67, -87.06 -25.49, -104.29 -30.4" stroke="#495057" stroke-width="1" fill="none"></path></g><g transform="translate(327.3332824707031 224) rotate(0 -51.937407074291265 -14.573554866295304)"><path d="M-75.82 -31.41 C-82.87 -29.92, -93.9 -31.64, -103.31 -32.35 M-73.48 -32.49 C-83.64 -30.56, -92.69 -31.9, -103.96 -30.36" stroke="#495057" stroke-width="1" fill="none"></path></g><g transform="translate(327.3332824707031 224) rotate(0 -51.937407074291265 -14.573554866295304)"><path d="M-81.72 -11.76 C-86.74 -16.55, -95.86 -24.61, -103.31 -32.35 M-79.38 -12.84 C-87.75 -16.7, -95.07 -23.79, -103.96 -30.36" stroke="#495057" stroke-width="1" fill="none"></path></g></g></svg>